<svg width="18" height="18" viewBox="0 0 18 18" fill="none" xmlns="http://www.w3.org/2000/svg">
<g clip-path="url(#clip0_5_226)">
<path d="M9 4C11.76 4 14 6.02 14 8.5C14 9.54 13.61 10.52 12.88 11.33L12.52 11.73L12.65 12.25L13.05 13.85L10.74 12.93L10.46 12.82L10.16 12.88C9.76 12.97 9.37 13.01 9 13.01C6.24 13.01 4 10.99 4 8.51C4 6.03 6.24 4 9 4ZM9 3C5.69 3 3 5.46 3 8.5C3 11.54 5.69 14 9 14C9.47 14 9.93 13.94 10.37 13.85L14.5 15.5L13.63 12C14.49 11.05 15 9.83 15 8.5C15 5.46 12.31 3 9 3Z" fill="#A8A8A8"/>
</g>
<defs>
<clipPath id="clip0_5_226">
<rect width="12" height="12.5" fill="white" transform="translate(3 3)"/>
</clipPath>
</defs>
</svg>
