<svg width="25" height="24" viewBox="0 0 25 24" fill="none" xmlns="http://www.w3.org/2000/svg">
<g id="Frame 39">
<path id="Union" fill-rule="evenodd" clip-rule="evenodd" d="M13.837 11.5858L13.837 5C13.837 4.44771 13.3893 4 12.837 4C12.2848 4 11.837 4.44771 11.837 5L11.837 11.5858L10.5441 10.2929C10.1536 9.90237 9.52045 9.90237 9.12993 10.2929C8.7394 10.6834 8.7394 11.3166 9.12993 11.7071L12.1299 14.7071L12.837 15.4142L13.5441 14.7071L16.5441 11.7071C16.9347 11.3166 16.9347 10.6834 16.5441 10.2929C16.1536 9.90237 15.5205 9.90237 15.1299 10.2929L13.837 11.5858ZM4.83704 14C4.83704 13.4477 5.28475 13 5.83704 13C6.38932 13 6.83704 13.4477 6.83704 14V18H18.837V14C18.837 13.4477 19.2848 13 19.837 13C20.3893 13 20.837 13.4477 20.837 14V19C20.837 19.5523 20.3893 20 19.837 20H5.83704C5.28475 20 4.83704 19.5523 4.83704 19V18V14Z" fill="white"/>
</g>
</svg>
