<svg width="18" height="18" viewBox="0 0 18 18" fill="none" xmlns="http://www.w3.org/2000/svg">
<g clip-path="url(#clip0_5_220)">
<path d="M11.61 4C12.23 4 12.82 4.27 13.26 4.77C14.25 5.87 14.25 7.66 13.26 8.76L9 13.5L4.74 8.77C3.75 7.67 3.75 5.88 4.74 4.78C5.19 4.28 5.78 4.01 6.39 4.01C7 4.01 7.6 4.28 8.04 4.78L8.25 5.01L8.99 5.84L9.73 5.01L9.94 4.78C10.39 4.28 10.98 4.01 11.59 4.01M11.61 3C10.74 3 9.87 3.37 9.21 4.1L9 4.33L8.79 4.1C8.13 3.36 7.26 3 6.39 3C5.52 3 4.66 3.37 3.99 4.1C2.67 5.58 2.67 7.96 3.99 9.43L9 15L14.01 9.43C15.33 7.96 15.33 5.57 14.01 4.1C13.35 3.36 12.48 3 11.61 3Z" fill="#A8A8A8"/>
</g>
<defs>
<clipPath id="clip0_5_220">
<rect width="12" height="12" fill="white" transform="translate(3 3)"/>
</clipPath>
</defs>
</svg>
