<svg width="58" height="40" viewBox="0 0 58 40" fill="none" xmlns="http://www.w3.org/2000/svg">
<path d="M49 30V10H51.2116C52.0512 10 52.7509 10.2449 53.3106 10.7347C53.8771 11.2245 54.3003 11.9184 54.5802 12.8163C54.8601 13.7143 55 14.771 55 15.9864C55 17.2018 54.8532 18.2494 54.5597 19.1293C54.2662 20.0091 53.8362 20.6984 53.2696 21.1973C52.7099 21.6871 52.0239 21.9546 51.2116 22V30H49ZM51.2116 19.0068C51.6007 19.0068 51.9079 18.907 52.1331 18.7075C52.3584 18.4989 52.5188 18.1723 52.6143 17.7279C52.7167 17.2834 52.7679 16.712 52.7679 16.0136C52.7679 15.3061 52.7167 14.7302 52.6143 14.2857C52.5188 13.8413 52.355 13.5147 52.1229 13.3061C51.8976 13.0975 51.5939 12.9932 51.2116 12.9932V19.0068Z" fill="#6A51FF"/>
<path d="M44 30C43.375 30 42.8368 29.8136 42.3854 29.4407C41.941 29.0679 41.5972 28.5619 41.3542 27.9228C41.1181 27.2836 41 26.5646 41 25.7656V14.2344C41 13.4265 41.1181 12.7075 41.3542 12.0772C41.5972 11.4381 41.941 10.9321 42.3854 10.5593C42.8368 10.1864 43.375 10 44 10C44.625 10 45.1597 10.1864 45.6042 10.5593C46.0556 10.9321 46.3993 11.4381 46.6354 12.0772C46.8785 12.7164 47 13.4354 47 14.2344V25.7656C47 26.5646 46.8785 27.2836 46.6354 27.9228C46.3993 28.5619 46.0556 29.0679 45.6042 29.4407C45.1597 29.8136 44.625 30 44 30ZM44 27.2037C44.2778 27.2037 44.4722 27.0573 44.5833 26.7643C44.6944 26.4625 44.75 26.1296 44.75 25.7656V14.2344C44.75 13.8704 44.691 13.5419 44.5729 13.249C44.4549 12.9472 44.2639 12.7963 44 12.7963C43.7431 12.7963 43.5521 12.9472 43.4271 13.249C43.309 13.5419 43.25 13.8704 43.25 14.2344V25.7656C43.25 26.1296 43.309 26.4625 43.4271 26.7643C43.5451 27.0573 43.7361 27.2037 44 27.2037Z" fill="#6A51FF"/>
<path d="M33 30V10H35.16V18.2721H36.84V10H39V30H36.84V21.2925H35.16V30H33Z" fill="#6A51FF"/>
<path d="M28.5232 30C27.8355 30 27.2638 29.8713 26.8079 29.6138C26.3521 29.3475 25.9928 28.9658 25.7301 28.4687C25.4674 27.9716 25.2781 27.3724 25.1623 26.6711C25.0541 25.9698 25 25.1798 25 24.3009L27.457 24.0346C27.457 24.4607 27.4685 24.8735 27.4917 25.273C27.5226 25.6636 27.5728 26.0186 27.6424 26.3382C27.7196 26.6489 27.8278 26.8975 27.9669 27.0839C28.1137 27.2703 28.2991 27.3635 28.5232 27.3635C28.894 27.3635 29.1567 27.1682 29.3113 26.7776C29.4658 26.3782 29.543 25.8988 29.543 25.3395C29.543 24.7803 29.4156 24.1988 29.1606 23.5952C28.9056 22.9916 28.6004 22.419 28.245 21.8775C27.6424 20.9543 27.1131 20.0976 26.6573 19.3076C26.2092 18.5175 25.8576 17.7408 25.6026 16.9774C25.3554 16.2139 25.2318 15.415 25.2318 14.5806C25.2318 13.9237 25.3052 13.32 25.452 12.7696C25.5988 12.2104 25.8113 11.7266 26.0894 11.3182C26.3753 10.901 26.7191 10.577 27.1209 10.3462C27.5226 10.1154 27.9823 10 28.5 10C29.1413 10 29.6821 10.1243 30.1225 10.3728C30.5706 10.6214 30.9299 10.9765 31.2003 11.4381C31.4785 11.8997 31.6794 12.4501 31.803 13.0892C31.9343 13.7195 32 14.4208 32 15.1931L29.543 15.4594C29.543 15.1309 29.5276 14.8025 29.4967 14.474C29.4735 14.1367 29.4272 13.8304 29.3576 13.5553C29.2881 13.2801 29.1876 13.0581 29.0563 12.8895C28.9249 12.7208 28.755 12.6365 28.5464 12.6365C28.2219 12.6365 27.9978 12.7963 27.8742 13.1158C27.7506 13.4265 27.6887 13.8704 27.6887 14.4474C27.6887 15.1931 27.8626 15.9121 28.2103 16.6045C28.5579 17.2969 29.0254 18.1047 29.6126 19.028C30.3157 20.1198 30.8874 21.1229 31.3278 22.0373C31.7759 22.9516 32 23.9636 32 25.0732C32 25.7745 31.9343 26.427 31.803 27.0306C31.6716 27.6254 31.463 28.1447 31.1772 28.5885C30.899 29.0324 30.5397 29.3786 30.0993 29.6272C29.6667 29.8757 29.1413 30 28.5232 30Z" fill="#6A51FF"/>
<path d="M15.3455 25.9398V10.1716H20.6444V12.5529H17.6624V16.8007H19.8077V19.1177H17.6624V23.5585H20.6444V25.9398H15.3455Z" fill="#FF6B3C"/>
<path d="M8.32704 25.9398V10.1716H13.626V12.5529H10.644V16.8007H12.7893V19.1177H10.644V23.5585H13.626V25.9398H8.32704Z" fill="#FF6B3C"/>
<path d="M2 25.9398V10.1716H4.31695V23.7945H7.38478V25.9398H2Z" fill="#FF6B3C"/>
<rect x="2" y="28" width="19" height="2" fill="#6A51FF"/>
</svg>
